<mxfile host="app.diagrams.net" modified="2022-03-26T07:31:32.423Z" agent="5.0 (Macintosh; Intel Mac OS X 10_15_7) AppleWebKit/605.1.15 (KHTML, like Gecko) Version/15.4 Safari/605.1.15" etag="-nxBwUWXOvOviiqmiS0O" version="17.2.4" type="github">
  <diagram name="Page-1" id="90a13364-a465-7bf4-72fc-28e22215d7a0">
    <mxGraphModel dx="1298" dy="842" grid="1" gridSize="10" guides="1" tooltips="1" connect="1" arrows="1" fold="1" page="1" pageScale="1.5" pageWidth="1169" pageHeight="826" background="none" math="0" shadow="0">
      <root>
        <mxCell id="0" style=";html=1;" />
        <mxCell id="1" style=";html=1;" parent="0" />
        <mxCell id="3a17f1ce550125da-2" value="Processor" style="whiteSpace=wrap;html=1;shadow=1;fontSize=18;fillColor=#f5f5f5;strokeColor=#666666;" parent="1" vertex="1">
          <mxGeometry x="787" y="454" width="170" height="280" as="geometry" />
        </mxCell>
        <mxCell id="3a17f1ce550125da-4" value="Display" style="whiteSpace=wrap;html=1;shadow=1;fontSize=18;fillColor=#f5f5f5;strokeColor=#666666;" parent="1" vertex="1">
          <mxGeometry x="1037" y="444" width="120" height="60" as="geometry" />
        </mxCell>
        <mxCell id="3a17f1ce550125da-9" value="Sensor" style="whiteSpace=wrap;html=1;shadow=1;fontSize=18;fillColor=#f5f5f5;strokeColor=#666666;" parent="1" vertex="1">
          <mxGeometry x="597" y="454" width="120" height="60" as="geometry" />
        </mxCell>
        <mxCell id="3a17f1ce550125da-10" value="Power Supply" style="whiteSpace=wrap;html=1;shadow=1;fontSize=18;fillColor=#f5f5f5;strokeColor=#666666;" parent="1" vertex="1">
          <mxGeometry x="799.5" y="774" width="145" height="120" as="geometry" />
        </mxCell>
        <mxCell id="ZIHgVNV_vWNdP-cPl0-p-3" value="Sensor" style="whiteSpace=wrap;html=1;shadow=1;fontSize=18;fillColor=#f5f5f5;strokeColor=#666666;" parent="1" vertex="1">
          <mxGeometry x="597" y="524" width="120" height="60" as="geometry" />
        </mxCell>
        <mxCell id="ZIHgVNV_vWNdP-cPl0-p-8" value="Button Control" style="whiteSpace=wrap;html=1;shadow=1;fontSize=18;fillColor=#f5f5f5;strokeColor=#666666;" parent="1" vertex="1">
          <mxGeometry x="597" y="640" width="120" height="60" as="geometry" />
        </mxCell>
        <mxCell id="ZIHgVNV_vWNdP-cPl0-p-12" value="" style="endArrow=none;html=1;rounded=0;strokeColor=default;exitX=1;exitY=0.5;exitDx=0;exitDy=0;entryX=-0.006;entryY=0.107;entryDx=0;entryDy=0;entryPerimeter=0;" parent="1" source="3a17f1ce550125da-9" target="3a17f1ce550125da-2" edge="1">
          <mxGeometry width="50" height="50" relative="1" as="geometry">
            <mxPoint x="760" y="520" as="sourcePoint" />
            <mxPoint x="810" y="470" as="targetPoint" />
          </mxGeometry>
        </mxCell>
        <mxCell id="ZIHgVNV_vWNdP-cPl0-p-13" value="" style="endArrow=none;html=1;rounded=0;strokeColor=default;exitX=1;exitY=0.5;exitDx=0;exitDy=0;entryX=-0.006;entryY=0.107;entryDx=0;entryDy=0;entryPerimeter=0;" parent="1" edge="1">
          <mxGeometry width="50" height="50" relative="1" as="geometry">
            <mxPoint x="717" y="553.54" as="sourcePoint" />
            <mxPoint x="785.98" y="553.5" as="targetPoint" />
          </mxGeometry>
        </mxCell>
        <mxCell id="ZIHgVNV_vWNdP-cPl0-p-14" value="" style="endArrow=none;html=1;rounded=0;strokeColor=default;exitX=1;exitY=0.5;exitDx=0;exitDy=0;entryX=-0.006;entryY=0.107;entryDx=0;entryDy=0;entryPerimeter=0;" parent="1" edge="1">
          <mxGeometry width="50" height="50" relative="1" as="geometry">
            <mxPoint x="718.02" y="669.54" as="sourcePoint" />
            <mxPoint x="787" y="669.5" as="targetPoint" />
          </mxGeometry>
        </mxCell>
        <mxCell id="ZIHgVNV_vWNdP-cPl0-p-15" value="" style="endArrow=none;html=1;rounded=0;strokeColor=default;exitX=1;exitY=0.5;exitDx=0;exitDy=0;entryX=0;entryY=0.5;entryDx=0;entryDy=0;" parent="1" target="3a17f1ce550125da-4" edge="1">
          <mxGeometry width="50" height="50" relative="1" as="geometry">
            <mxPoint x="957" y="473.54" as="sourcePoint" />
            <mxPoint x="1025.98" y="473.50000000000006" as="targetPoint" />
          </mxGeometry>
        </mxCell>
        <mxCell id="ZIHgVNV_vWNdP-cPl0-p-16" value="" style="endArrow=none;html=1;rounded=0;strokeColor=default;exitX=0.5;exitY=1;exitDx=0;exitDy=0;entryX=0.5;entryY=0;entryDx=0;entryDy=0;" parent="1" source="3a17f1ce550125da-2" target="3a17f1ce550125da-10" edge="1">
          <mxGeometry width="50" height="50" relative="1" as="geometry">
            <mxPoint x="757" y="524" as="sourcePoint" />
            <mxPoint x="825.98" y="523.96" as="targetPoint" />
          </mxGeometry>
        </mxCell>
      </root>
    </mxGraphModel>
  </diagram>
</mxfile>
